<svg width="334" height="444" viewBox="0 0 334 444" fill="none" xmlns="http://www.w3.org/2000/svg">
<path d="M43 40V404M290.5 40V404M122.5 15.5V117.5V219.5M122.5 262.5V431M213.5 15.5V219.5M213.5 262.5V431" stroke="currentColor" stroke-width="3" stroke-linecap="square"></path>
<path d="M9.5 179.5H65.5M113.5 179.5H144M193.5 179.5H223M269 179.5H323.5M323.5 300H279M230.5 300H193.5M144 300H106M55.5 300H9.5M9.5 235H65.5M269 247H323.5" stroke="currentColor" stroke-width="5" stroke-linecap="square"></path>
<path d="M167 141.472L129.5 141.364C129.5 141.364 154 142.864 154 158.364C154 173.864 154 205.364 154 205.364V240.864C128.563 240.964 104.124 228.472 101 187.864C98 148.864 84.9307 140.58 64 134.972C41 128.08 25.5 134.624 8.5 139.972C36.8244 131.061 56.6581 127.509 70.5 155.864C80.5 189.864 73.5 185.364 82.5 211.864C94 234.364 113 252.364 154 254.864V303.363C154 324.863 139 329.863 129.5 329.863L167.5 329.966" stroke="currentColor" stroke-width="11" stroke-linecap="square"></path>
<path d="M167 141.472L205.5 141.364C205.5 141.364 181 142.864 181 158.364C181 173.864 181 205.364 181 205.364V240.864C206.437 240.964 230.876 228.472 234 187.864C237 148.864 250.069 140.58 271 134.972C294 128.08 309.5 134.624 326.5 139.972C298.176 131.061 278.342 127.509 264.5 155.864C254.5 189.864 261.5 185.364 252.5 211.864C241 234.364 222 252.364 181 254.864V303.363C181 324.863 196 329.863 205.5 329.863L167.5 329.966" stroke="currentColor" stroke-width="11" stroke-linecap="square"></path>
<path d="M328.5 387V63C273 31 238 5.5 167.5 5.5C97 5.5 61.3232 30.6421 5.50001 63V387C64.5 416.5 96.5 438.5 169.5 438.5C242.5 438.5 276.5 415.5 328.5 387Z" stroke="currentColor" stroke-width="11" stroke-linecap="square"></path>
<path d="M79.7298 111.277C49.9504 117.337 36 122 7.00465 133V318.5C7.00465 318.5 51.6803 338.664 81.2345 344.749C114.848 351.068 133.231 352.847 167 354C205.616 353.161 226.601 350.564 255.775 344.262C289.145 336.972 303 333.5 326.5 322.5V133L325.77 132.748C297.24 122.91 281.854 117.604 251.762 111.277L250.483 111.047C220.953 105.736 204.31 102.743 167 102C132.241 103.059 111.629 105.966 79.7298 111.277Z" stroke="currentColor" stroke-width="11" stroke-linecap="square"></path>
<path d="M327.5 351.225V107.197C284.5 83 249.5 58 168 58C86.5 58 55 82.174 7.5 105.146V349.687C55 372.262 81 398.903 168.251 398.903C255.502 398.903 274 375.716 327.5 351.225Z" stroke="currentColor" stroke-width="6" stroke-linecap="square"></path>
<path d="M168 121V13.5M252.5 27.5V123.5M82.5 29V123.5M83.5 347.5V418.5M169 354V434.5M252.5 347.5V418.5" stroke="currentColor" stroke-width="11" stroke-linecap="square"></path>
<path d="M76.8651 193C76.8651 259 76.8651 259 73.5 286.5C70.1349 314 49.7222 339.312 7.5 315.651C27.6058 330.621 79 328 89 311C99 294 99 276.5 102 242.5" stroke="currentColor" stroke-width="11" stroke-linecap="square"></path>
<path d="M258 193C258 259 258.635 259 262 286.5C265.365 314 285.778 339.312 328 315.651C307.894 330.621 256.5 328 246.5 311C236.5 294 236.5 276.5 233.5 242.5" stroke="currentColor" stroke-width="11" stroke-linecap="square"></path>
</svg>