<svg xmlns="http://www.w3.org/2000/svg" viewBox="0 0 240 280" fill="none" stroke="#0A0A0A" stroke-width="6" stroke-linejoin="miter" stroke-linecap="square">
  
  <g>
    <path d="M 20 270 L 20 80 Q 20 25 75 25 L 165 25 Q 220 25 220 80 L 220 270 Z"></path>
    <line x1="65" y1="42" x2="65" y2="270"></line>
    <line x1="105" y1="28" x2="105" y2="270"></line>
    <line x1="135" y1="25" x2="135" y2="270"></line>
    <line x1="175" y1="28" x2="175" y2="270"></line>
    <line x1="22" y1="95" x2="218" y2="95"></line>
    <line x1="20" y1="160" x2="220" y2="160"></line>
    <line x1="20" y1="225" x2="220" y2="225"></line>
  </g>

  <g fill="#0A0A0A" stroke="none">
    <path d="M 60 105&#xA;             L 86 105&#xA;             L 86 178&#xA;             Q 86 196 108 198&#xA;             L 108 105&#xA;             L 132 105&#xA;             L 132 198&#xA;             Q 154 196 154 178&#xA;             L 154 105&#xA;             L 180 105&#xA;             L 180 186&#xA;             Q 180 222 132 228&#xA;             L 132 250&#xA;             L 108 250&#xA;             L 108 228&#xA;             Q 60 222 60 186&#xA;             Z"></path>
    <rect x="113" y="55" width="14" height="55"></rect>
  </g>
</svg>