<svg xmlns="http://www.w3.org/2000/svg" viewBox="0 0 480 280" fill="none" stroke="#FFFFFF" stroke-width="6" stroke-linejoin="miter" stroke-linecap="square">
  

  
  <g stroke-width="14">
    <path d="M 30 50 L 30 250"></path>
    <path d="M 23 50 L 90 50"></path>
    <path d="M 23 140 L 80 140"></path>
  </g>

  
  <g stroke-width="14" fill="none">
    <path d="M 457 65 Q 457 50 442 50 L 405 50 Q 390 50 390 65 L 390 125 Q 390 140 405 140 L 442 140 Q 457 140 457 155 L 457 235 Q 457 250 442 250 L 390 250"></path>
  </g>

  
  <g stroke-width="6">
    <path d="M 110 250 L 110 90 Q 110 40 160 40 L 320 40 Q 370 40 370 90 L 370 250 Z"></path>
    <line x1="155" y1="55" x2="155" y2="250"></line>
    <line x1="200" y1="42" x2="200" y2="250"></line>
    <line x1="240" y1="40" x2="240" y2="250"></line>
    <line x1="280" y1="42" x2="280" y2="250"></line>
    <line x1="325" y1="55" x2="325" y2="250"></line>
    <line x1="113" y1="100" x2="367" y2="100"></line>
    <line x1="110" y1="160" x2="370" y2="160"></line>
    <line x1="110" y1="220" x2="370" y2="220"></line>
  </g>

  
  <g fill="#FFFFFF" stroke="none">
    
    <path d="M 170 100&#xA;             L 196 100&#xA;             L 196 180&#xA;             Q 196 198 218 200&#xA;             L 218 100&#xA;             L 262 100&#xA;             L 262 200&#xA;             Q 284 198 284 180&#xA;             L 284 100&#xA;             L 310 100&#xA;             L 310 188&#xA;             Q 310 226 262 232&#xA;             L 262 252&#xA;             L 218 252&#xA;             L 218 232&#xA;             Q 170 226 170 188&#xA;             Z"></path>
    
    <rect x="232" y="55" width="16" height="50"></rect>
  </g>
</svg>