<svg width="655" height="444" viewBox="0 0 655 444" fill="none" xmlns="http://www.w3.org/2000/svg">
<path d="M122.696 80.5L5.5 147.118V229.32M5.5 229.32V307.401M5.5 229.32H122.696M649.5 177.171V147.118L527.405 80.5V243.788H649.5V300.889L527.405 363.5V307.401" stroke="black" stroke-width="11" stroke-linecap="square"/>
<path d="M203 40V404M450.5 40V404M282.5 15.5V117.5V219.5M282.5 262.5V431M373.5 15.5V219.5M373.5 262.5V431" stroke="black" stroke-width="3" stroke-linecap="square"/>
<path d="M169.5 179.5H225.5M273.5 179.5H304M353.5 179.5H383M429 179.5H483.5M483.5 300H439M390.5 300H353.5M304 300H266M215.5 300H169.5M169.5 235H225.5M429 247H483.5" stroke="black" stroke-width="5" stroke-linecap="square"/>
<path d="M487.5 351.225V107.197C444.5 83 409.5 58 328 58C246.5 58 215 82.174 167.5 105.146V349.687C215 372.262 241 398.903 328.251 398.903C415.502 398.903 434 375.716 487.5 351.225Z" stroke="black" stroke-width="6" stroke-linecap="square"/>
<path d="M289.5 141.364C289.5 141.364 314 142.864 314 158.364V240.864C288.563 240.964 264.124 228.472 261 187.864C258 148.864 244.931 140.58 224 134.972C201 128.08 185.5 134.624 168.5 139.972C196.824 131.061 216.658 127.509 230.5 155.864C240.5 189.864 233.5 185.364 242.5 211.864C254 234.364 273 252.364 314 254.864V303.363C314 324.863 299 329.863 289.5 329.863L327.5 329.966L365.5 329.863C356 329.863 341 324.863 341 303.363V254.864C382 252.364 401 234.364 412.5 211.864C421.5 185.364 414.5 189.864 424.5 155.864C438.342 127.509 458.176 131.061 486.5 139.972C469.5 134.624 454 128.08 431 134.972C410.069 140.58 397 148.864 394 187.864C390.876 228.472 366.437 240.964 341 240.864V158.364C341 142.864 365.5 141.364 365.5 141.364L327 141.472L289.5 141.364Z" fill="black" stroke="black" stroke-width="11" stroke-linecap="square"/>
<path d="M488.5 387V63C433 31 398 5.5 327.5 5.5C257 5.5 221.323 30.6421 165.5 63V387C224.5 416.5 256.5 438.5 329.5 438.5C402.5 438.5 436.5 415.5 488.5 387Z" stroke="black" stroke-width="11" stroke-linecap="square"/>
<path d="M239.73 111.277C209.95 117.337 196 122 167.005 133V318.5C167.005 318.5 211.68 338.664 241.234 344.749C274.848 351.068 293.231 352.847 327 354C365.616 353.161 386.601 350.564 415.775 344.262C449.145 336.972 463 333.5 486.5 322.5V133L485.77 132.748C457.24 122.91 441.854 117.604 411.762 111.277L410.483 111.047C380.953 105.736 364.31 102.743 327 102C292.241 103.059 271.629 105.966 239.73 111.277Z" stroke="black" stroke-width="11" stroke-linecap="square"/>
<path d="M328 121V13.5M412.5 27.5V123.5M242.5 29V123.5M243.5 347.5V418.5M329 354V434.5M412.5 347.5V418.5" stroke="black" stroke-width="11" stroke-linecap="square"/>
<path d="M166 236.5H228M426.5 248H488.5" stroke="black" stroke-width="11"/>
<path d="M233.5 286.5C236.865 259 236.865 259 236.865 193L262 242.5C259 276.5 259 294 249 311C242.477 322.089 218.341 327.06 196.764 325.021C193.022 324.921 188.978 324.285 184.625 323.032C177.912 321.407 171.942 318.959 167.5 315.651C173.669 319.108 179.372 321.52 184.625 323.032C188.476 323.964 192.572 324.625 196.764 325.021C219.413 325.63 231.034 306.652 233.5 286.5Z" fill="black" stroke="black" stroke-width="11" stroke-linecap="square"/>
<path d="M422 286.5C418.635 259 418 259 418 193L393.5 242.5C396.5 276.5 396.5 294 406.5 311C413.023 322.089 437.159 327.06 458.736 325.021C462.478 324.921 466.522 324.285 470.875 323.032C477.588 321.407 483.558 318.959 488 315.651C481.831 319.108 476.128 321.52 470.875 323.032C467.024 323.964 462.928 324.625 458.736 325.021C436.087 325.63 424.466 306.652 422 286.5Z" fill="black" stroke="black" stroke-width="11" stroke-linecap="square"/>
</svg>
