<svg xmlns="http://www.w3.org/2000/svg" xmlns:xlink="http://www.w3.org/1999/xlink" width="1024" zoomAndPan="magnify" viewBox="0 0 768 767.999994" height="1024" preserveAspectRatio="xMidYMid meet" version="1.2"><defs/><g id="66abe6d242"><path style=" stroke:none;fill-rule:nonzero;fill:#000000;fill-opacity:1;" d="M 321.53125 39.355469 C 274.609375 44.839844 226.265625 64.679688 186.253906 94.9375 C 172.222656 105.460938 154.242188 124.207031 145.363281 137.46875 C 136.8125 150.296875 132.976562 159.175781 132.207031 167.507812 C 131.660156 172.878906 131.441406 173.207031 125.300781 177.15625 C 88.46875 201.050781 67.203125 242.820312 71.695312 282.503906 C 72.355469 288.53125 73.011719 294.5625 72.902344 295.878906 C 72.902344 297.082031 70.492188 301.578125 67.421875 305.742188 C 56.238281 321.199219 47.03125 341.699219 42.425781 361.542969 C 39.355469 374.367188 39.6875 399.253906 42.976562 414.710938 C 46.152344 429.730469 53.167969 450.777344 57.554688 458.449219 C 59.527344 461.847656 65.007812 468.644531 69.722656 473.578125 C 78.273438 482.457031 78.382812 482.675781 77.617188 486.953125 C 76.519531 493.640625 78.710938 501.640625 85.289062 515.34375 C 98.773438 543.300781 121.027344 568.292969 145.253906 582.542969 C 153.367188 587.367188 165.316406 591.972656 172.113281 592.847656 C 177.375 593.507812 178.03125 593.945312 180.554688 598.113281 C 190.199219 614.445312 212.34375 628.148438 248.628906 639.988281 C 278.007812 649.636719 302.894531 653.691406 339.617188 654.675781 L 364.832031 655.335938 L 365.378906 698.964844 L 365.925781 742.707031 L 368.558594 744.789062 C 372.394531 747.859375 377.875 747.527344 380.617188 744.019531 C 382.917969 741.0625 382.917969 740.953125 382.917969 613.679688 C 382.917969 508.769531 382.699219 485.964844 381.496094 484.980469 C 380.617188 484.320312 374.257812 482.347656 367.132812 480.59375 C 338.523438 473.359375 310.675781 455.601562 292.589844 433.128906 C 278.886719 416.246094 270.445312 399.253906 264.964844 377.984375 C 262.113281 367.132812 261.894531 364.0625 261.785156 347.839844 C 261.785156 328.984375 262.550781 323.613281 267.484375 307.828125 C 273.40625 288.863281 283.378906 272.199219 297.632812 257.179688 C 317.800781 236.132812 343.453125 222.101562 370.859375 217.386719 C 382.917969 215.195312 381.824219 222.976562 381.824219 141.199219 C 381.824219 61.71875 381.933594 62.816406 374.585938 54.15625 C 369.433594 48.125 364.171875 44.949219 355.292969 42.207031 C 348.277344 40.015625 329.53125 38.480469 321.53125 39.355469 Z M 352.554688 61.171875 C 358.253906 63.253906 361.324219 66.433594 363.40625 72.574219 C 364.722656 76.628906 366.148438 192.171875 364.941406 197.214844 C 364.503906 198.859375 363.078125 199.957031 360.773438 200.394531 C 352.882812 202.148438 336.878906 208.070312 327.558594 212.671875 C 300.261719 226.265625 278.558594 246.328125 263.648438 271.652344 C 254.441406 287.328125 246.765625 310.457031 245.011719 328.328125 L 244.246094 336.328125 L 227.691406 336.65625 L 211.027344 336.988281 L 210.480469 320.214844 C 209.714844 295.878906 205.875 283.820312 196.667969 276.914062 C 191.515625 272.964844 186.472656 271.320312 168.933594 268.03125 C 160.273438 266.386719 156.105469 265.074219 152.488281 262.660156 C 147.335938 259.152344 147.554688 259.8125 148.980469 247.3125 C 149.640625 241.066406 149.53125 240.40625 146.898438 237.777344 C 140.539062 231.417969 133.195312 235.363281 129.6875 246.875 C 126.835938 256.632812 126.945312 259.59375 130.34375 266.5 C 135.828125 277.460938 143.609375 282.066406 161.917969 285.355469 C 180.882812 288.640625 184.5 290.285156 187.570312 296.644531 C 193.050781 308.046875 194.035156 319.117188 191.515625 341.371094 C 190.859375 346.851562 191.078125 347.730469 193.597656 350.691406 L 196.339844 353.867188 L 220.347656 354.417969 L 244.246094 354.964844 L 244.574219 359.898438 C 245.011719 369.546875 248.300781 386.757812 251.480469 396.292969 C 259.152344 419.972656 271.101562 439.046875 289.628906 457.574219 C 309.140625 476.976562 331.175781 490.460938 355.292969 497.585938 L 365.378906 500.65625 L 365.378906 544.722656 C 365.378906 585.722656 365.269531 589.011719 363.515625 589.890625 C 361.652344 590.765625 334.902344 589.5625 331.726562 588.464844 C 330.628906 588.136719 330.300781 580.902344 330.300781 557.550781 C 330.300781 540.777344 329.859375 525.210938 329.3125 522.910156 C 327.777344 516.441406 324.378906 513.699219 308.59375 506.136719 C 291.273438 497.914062 282.941406 492.980469 275.269531 486.40625 C 270.664062 482.457031 268.800781 481.582031 265.292969 481.582031 C 261.566406 481.582031 260.140625 482.457031 254.332031 487.9375 C 234.488281 506.792969 220.457031 515.34375 205.765625 517.867188 C 199.078125 519.074219 196.558594 518.960938 188.882812 517.429688 C 177.59375 515.234375 164.328125 508.988281 155.121094 501.421875 C 150.078125 497.367188 147.226562 495.832031 144.816406 495.832031 C 140.101562 495.832031 137.359375 498.574219 137.359375 503.394531 C 137.359375 506.792969 138.347656 508.21875 144.265625 513.921875 C 149.96875 519.292969 166.960938 530.691406 171.671875 532.335938 C 172.441406 532.554688 172.332031 534.308594 171.453125 538.148438 C 170.6875 541.105469 169.808594 548.671875 169.480469 555.027344 C 168.933594 569.609375 168.496094 571.472656 166.082031 571.472656 C 161.808594 571.472656 143.5 558.757812 132.976562 548.453125 C 114.777344 530.691406 104.144531 513.042969 96.800781 488.488281 C 92.632812 474.566406 92.523438 474.015625 94.058594 469.304688 C 96.03125 463.820312 101.953125 459.109375 113.351562 454.394531 C 119.273438 451.980469 122.015625 451.433594 130.894531 451.433594 C 141.089844 451.433594 141.636719 451.542969 151.171875 456.257812 C 159.722656 460.53125 162.464844 462.726562 173.648438 474.015625 C 180.664062 481.03125 187.460938 487.390625 188.664062 488.046875 C 194.367188 491.117188 200.941406 487.71875 200.941406 481.691406 C 200.941406 477.195312 193.597656 466.78125 183.730469 457.355469 C 150.078125 425.234375 114.230469 423.917969 82.769531 453.515625 L 79.152344 456.914062 L 77.066406 454.175781 C 73.777344 449.898438 67.421875 436.195312 64.460938 427.207031 C 58.871094 410.214844 57.007812 389.167969 59.527344 373.382812 C 62.597656 354.308594 72.023438 331.945312 82.878906 317.691406 C 88.140625 310.785156 89.125 310.019531 93.074219 309.691406 C 98.445312 309.140625 108.089844 311.226562 113.574219 314.074219 C 122.453125 318.570312 130.894531 328.546875 138.238281 343.015625 C 143.171875 352.882812 146.679688 356.609375 150.953125 356.609375 C 157.96875 356.609375 160.054688 352.222656 157.53125 342.796875 C 155.558594 334.902344 151.394531 327.011719 144.816406 318.023438 C 133.195312 302.234375 121.902344 295.109375 103.378906 292.039062 C 96.582031 290.945312 91.867188 289.519531 91.210938 288.53125 C 89.675781 286.121094 90.003906 269.347656 91.867188 259.042969 C 96.800781 230.761719 110.941406 209.710938 136.375 192.832031 L 145.800781 186.582031 L 151.171875 187.898438 C 155.339844 188.992188 157.859375 190.636719 162.574219 195.460938 C 165.863281 198.859375 170.027344 204.121094 171.671875 207.191406 C 174.851562 213.222656 177.921875 226.375 177.921875 234.488281 C 177.921875 240.078125 180.773438 243.695312 185.15625 243.695312 C 192.28125 243.695312 194.804688 238.324219 194.804688 223.414062 C 194.804688 199.410156 180.003906 178.359375 157.859375 170.796875 C 151.941406 168.824219 151.503906 168.496094 152.160156 165.863281 C 154.132812 157.96875 168.824219 137.46875 181.648438 124.753906 C 190.859375 115.65625 204.011719 105.242188 212.234375 100.527344 C 220.128906 96.03125 221.660156 96.582031 231.308594 107.761719 C 242.492188 120.808594 250.933594 134.292969 256.195312 147.773438 C 262.441406 163.5625 266.058594 166.738281 271.871094 161.257812 C 273.953125 159.285156 274.390625 157.75 274.390625 152.160156 C 274.390625 136.375 266.828125 121.574219 247.09375 99.101562 C 235.914062 86.167969 235.914062 86.496094 245.78125 81.453125 C 262.992188 72.902344 289.519531 64.023438 308.921875 60.515625 C 322.625 57.992188 344.550781 58.320312 352.554688 61.171875 Z M 274.941406 510.191406 C 285.792969 516.332031 300.152344 523.238281 306.402344 525.320312 C 308.59375 526.089844 310.894531 527.292969 311.554688 528.0625 C 312.210938 528.828125 312.761719 541.875 312.980469 563.46875 C 313.308594 601.511719 312.980469 599.867188 321.53125 603.59375 C 325.585938 605.457031 329.75 605.894531 345.648438 606.441406 L 364.832031 607.101562 L 365.160156 622.007812 C 365.378906 634.507812 365.160156 637.136719 363.84375 637.574219 C 361.980469 638.34375 314.183594 635.710938 299.277344 634.066406 C 288.53125 632.863281 282.722656 630.121094 280.75 625.296875 C 277.023438 616.199219 275.597656 596.359375 277.679688 584.078125 C 278.335938 580.460938 279.324219 575.089844 279.761719 572.019531 C 281.734375 560.839844 278.226562 558.976562 263.976562 563.25 C 255.097656 565.992188 253.78125 566.101562 248.410156 564.894531 C 245.121094 564.238281 239.75 562.15625 236.351562 560.402344 C 229.773438 556.894531 227.582031 556.5625 223.527344 558.425781 C 219.6875 560.179688 218.375 564.675781 220.238281 569.171875 C 221.332031 571.910156 223.304688 573.335938 228.570312 575.859375 C 236.679688 579.476562 245.339844 581.996094 253.015625 582.984375 L 258.496094 583.640625 L 258.167969 595.371094 C 257.949219 601.839844 258.277344 610.71875 259.042969 615.210938 C 260.6875 625.296875 260.03125 625.847656 250.382812 622.230469 C 219.6875 610.71875 197.65625 595.699219 191.078125 581.558594 C 185.597656 570.046875 184.171875 548.671875 188.226562 539.460938 L 189.980469 535.40625 L 199.628906 535.40625 C 219.46875 535.515625 237.777344 527.511719 256.742188 510.632812 C 260.46875 507.34375 263.867188 504.601562 264.304688 504.601562 C 264.746094 504.601562 269.566406 507.125 274.941406 510.191406 Z M 274.941406 510.191406 "/><path style=" stroke:none;fill-rule:nonzero;fill:#000000;fill-opacity:1;" d="M 311.664062 84.414062 C 309.582031 84.632812 304.320312 85.507812 299.933594 86.496094 C 293.464844 87.8125 291.492188 88.796875 289.082031 91.648438 C 286.777344 94.386719 286.339844 95.8125 286.886719 98.773438 C 287.21875 100.855469 288.3125 103.488281 289.410156 104.691406 C 291.601562 107.105469 294.34375 106.996094 306.292969 104.363281 C 316.707031 102.0625 316.046875 100.089844 316.046875 135.058594 L 316.046875 165.753906 L 305.414062 172.003906 C 286.230469 183.074219 276.695312 189.324219 267.59375 196.449219 L 258.824219 203.574219 L 253.125 200.394531 C 237.996094 192.0625 226.8125 180.992188 220.894531 168.164062 L 218.152344 162.246094 L 220.566406 154.902344 C 223.636719 145.253906 223.636719 140.210938 220.457031 138.019531 C 216.621094 135.277344 213.332031 135.9375 208.726562 140.101562 C 198.640625 149.308594 196.996094 164.109375 204.671875 178.800781 C 210.152344 189.105469 219.03125 198.640625 232.625 208.617188 C 238.761719 213.109375 243.695312 217.058594 243.695312 217.386719 C 243.695312 217.714844 240.1875 222.648438 236.023438 228.347656 C 225.828125 242.160156 222.867188 248.191406 222.867188 255.207031 C 222.867188 262.113281 224.511719 264.632812 229.226562 264.746094 C 233.5 264.855469 236.460938 262.332031 239.859375 255.753906 C 243.585938 248.410156 254.441406 234.050781 263.648438 224.402344 C 277.789062 209.492188 292.917969 198.09375 318.570312 182.855469 C 325.367188 178.800781 329.859375 175.402344 330.957031 173.425781 C 332.164062 170.90625 332.492188 163.121094 332.492188 130.894531 C 332.492188 103.707031 332.054688 90.550781 331.285156 88.6875 C 329.203125 84.304688 323.941406 83.097656 311.664062 84.414062 Z M 311.664062 84.414062 "/><path style=" stroke:none;fill-rule:nonzero;fill:#000000;fill-opacity:1;" d="M 94.828125 354.964844 C 92.304688 357.046875 91.101562 359.570312 89.234375 366.914062 C 86.386719 378.425781 86.386719 381.824219 89.125 387.195312 C 93.621094 396.074219 104.144531 402.101562 119.054688 404.296875 C 121.902344 404.734375 140.539062 405.390625 160.382812 405.832031 L 196.667969 406.488281 L 199.410156 414.710938 C 205.546875 432.796875 217.167969 453.078125 226.15625 461.191406 C 231.199219 465.796875 235.914062 466.34375 239.3125 462.945312 C 243.039062 459.21875 242.160156 454.285156 235.914062 444.199219 C 227.910156 431.371094 222.210938 419.203125 218.375 406.707031 C 214.535156 394.648438 211.355469 390.042969 205.546875 388.398438 C 203.355469 387.742188 182.527344 386.867188 159.285156 386.316406 C 128.921875 385.550781 115.875 384.890625 112.695312 383.796875 C 107.761719 382.152344 107.761719 382.371094 109.40625 365.707031 C 110.175781 358.253906 110.066406 357.707031 107.433594 355.074219 C 103.707031 351.457031 99.101562 351.347656 94.828125 354.964844 Z M 94.828125 354.964844 "/><path style=" stroke:none;fill-rule:nonzero;fill:#000000;fill-opacity:1;" d="M 426.878906 43.960938 C 424.796875 44.949219 422.054688 47.25 420.847656 48.894531 C 418.65625 51.855469 418.546875 53.828125 417.671875 101.515625 C 416.574219 169.152344 416.902344 196.011719 419.09375 198.09375 C 419.972656 199.078125 424.90625 200.613281 429.839844 201.492188 C 479.9375 211.027344 521.703125 246.765625 539.023438 295 C 549.4375 324.269531 549.328125 360.226562 538.585938 389.605469 C 530.910156 410.652344 518.851562 428.960938 502.410156 444.636719 C 481.910156 464.152344 459.328125 475.878906 430.605469 481.691406 C 424.578125 482.894531 419.09375 484.429688 418.328125 485.089844 C 417.230469 485.964844 416.902344 511.835938 416.902344 614.117188 L 416.902344 742.15625 L 419.425781 744.460938 C 422.933594 747.75 429.949219 747.75 433.015625 744.460938 L 435.320312 741.9375 L 435.757812 621.679688 L 436.085938 501.421875 L 439.375 500.65625 C 447.160156 499.011719 464.261719 492.980469 473.578125 488.707031 C 528.609375 462.945312 564.128906 410.324219 566.757812 350.03125 C 570.265625 273.074219 520.277344 204.121094 447.816406 185.816406 L 436.085938 182.746094 L 436.085938 62.269531 L 441.566406 61.941406 C 454.066406 61.0625 485.089844 67.53125 506.246094 75.421875 C 582.984375 103.925781 627.929688 163.34375 630.339844 239.3125 C 630.78125 253.890625 630.449219 258.933594 628.039062 274.171875 C 624.96875 294.015625 625.296875 297.851562 630.890625 307.386719 C 632.535156 310.128906 649.414062 331.835938 668.492188 355.621094 C 687.566406 379.300781 703.898438 400.238281 704.777344 401.882812 C 706.3125 404.734375 706.3125 405.28125 704.667969 407.695312 C 702.035156 411.859375 697.761719 413.941406 679.015625 420.738281 C 660.378906 427.425781 656.542969 429.949219 654.675781 436.964844 C 653.363281 442.117188 654.347656 447.378906 659.71875 463.601562 C 664.871094 479.058594 664.761719 480.703125 658.40625 487.0625 C 654.347656 491.007812 652.046875 492.433594 648.429688 492.980469 C 641.960938 493.96875 635.492188 497.367188 634.726562 500.328125 C 633.191406 506.355469 636.371094 508.65625 648.976562 510.632812 C 655.117188 511.617188 657.746094 514.796875 657.089844 520.605469 C 657.089844 521.375 654.675781 524.773438 651.9375 528.28125 C 640.863281 542.421875 639.21875 551.960938 644.371094 571.910156 C 645.90625 577.722656 647.113281 584.957031 647.113281 587.917969 C 647.113281 598.660156 640.097656 607.976562 627.929688 613.128906 C 617.515625 617.625 609.183594 618.0625 568.183594 616.089844 C 543.738281 614.992188 528.28125 614.773438 524.445312 615.324219 C 508.660156 617.953125 491.007812 631.328125 486.074219 644.371094 C 479.9375 660.488281 475.878906 682.632812 473.796875 711.792969 C 472.152344 734.375 472.703125 742.15625 476.101562 744.898438 C 477.855469 746.324219 480.046875 746.871094 483.007812 746.652344 C 490.351562 746.105469 491.117188 744.019531 492.433594 720.78125 C 495.394531 670.246094 502.738281 647.550781 519.402344 637.6875 C 526.308594 633.738281 534.75 633.191406 567.089844 634.835938 C 605.566406 636.699219 620.914062 636.152344 631.984375 632.535156 C 647.003906 627.710938 657.964844 618.5 664.324219 605.675781 C 666.847656 600.414062 667.394531 598.113281 667.285156 591.207031 C 667.175781 586.710938 665.96875 578.050781 664.652344 572.019531 C 663.339844 565.992188 662.023438 558.316406 661.695312 554.917969 C 661.144531 549.109375 661.363281 548.5625 665.640625 542.859375 C 668.160156 539.570312 671.777344 533.871094 673.644531 530.144531 C 676.492188 524.335938 676.929688 522.472656 676.382812 518.304688 C 675.945312 515.5625 674.957031 511.945312 674.082031 510.300781 C 673.203125 508.65625 672.21875 505.480469 671.777344 503.285156 C 671.121094 499.558594 671.449219 498.792969 675.945312 493.96875 C 678.574219 491.117188 681.207031 487.5 681.644531 486.074219 C 683.179688 481.140625 682.304688 474.234375 678.90625 464.480469 C 677.042969 459 675.398438 452.09375 675.285156 448.804688 L 675.066406 442.882812 L 686.578125 439.15625 C 717.820312 429.179688 729.660156 417.890625 726.042969 401.882812 C 724.398438 394.101562 719.902344 387.523438 696.226562 358.253906 C 659.171875 312.210938 655.773438 307.828125 650.949219 300.589844 C 645.359375 292.371094 645.03125 289.519531 647.769531 277.679688 C 650.074219 267.59375 650.949219 237.996094 649.414062 223.964844 C 643.714844 173.757812 625.957031 137.03125 591.972656 104.800781 C 557.769531 72.464844 513.371094 51.855469 461.191406 44.179688 C 442.117188 41.441406 431.921875 41.332031 426.878906 43.960938 Z M 426.878906 43.960938 "/><path style=" stroke:none;fill-rule:nonzero;fill:#000000;fill-opacity:1;" d="M 350.453125 301.574219 C 350.453125 304.140625 350.929688 304.996094 352.636719 305.46875 C 358.144531 307.179688 359.191406 309.648438 361.851562 326.554688 C 364.511719 343.269531 374.101562 354.097656 389.394531 357.328125 L 394.140625 358.371094 L 394.140625 369.578125 C 394.140625 382.117188 393.476562 383.824219 388.347656 383.824219 C 385.785156 383.824219 385.59375 384.109375 385.59375 387.148438 L 385.59375 390.472656 L 415.988281 390.472656 L 415.988281 387.148438 C 415.988281 384.109375 415.796875 383.824219 413.234375 383.824219 C 408.199219 383.824219 407.4375 382.117188 407.4375 369.675781 L 407.4375 358.464844 L 413.898438 356.851562 C 428.238281 353.339844 437.070312 342.984375 439.730469 326.363281 C 442.390625 309.554688 443.433594 307.179688 449.039062 305.46875 C 450.652344 304.996094 451.128906 304.140625 451.128906 301.574219 L 451.128906 298.25 L 446.664062 298.820312 C 436.785156 300.152344 431.65625 303.191406 428.332031 309.742188 C 427.289062 311.738281 425.863281 317.722656 425.007812 323.136719 C 423.015625 336.050781 420.070312 342.226562 414.277344 345.929688 C 411.902344 347.449219 409.339844 348.683594 408.671875 348.683594 C 407.152344 348.683594 406.871094 313.542969 408.390625 310.597656 C 409.148438 309.363281 410.382812 308.792969 412.757812 308.792969 C 416.082031 308.792969 416.082031 308.699219 415.796875 305.183594 L 415.511719 301.671875 L 386.070312 301.671875 L 385.785156 305.183594 C 385.5 308.605469 385.59375 308.792969 388.347656 308.792969 C 393.859375 308.792969 394.140625 309.839844 394.140625 330.257812 C 394.140625 344.789062 393.859375 348.683594 392.90625 348.683594 C 392.242188 348.683594 389.679688 347.449219 387.304688 345.929688 C 381.511719 342.226562 378.472656 335.863281 376.667969 323.992188 C 374.007812 306.132812 369.355469 300.722656 355.011719 298.820312 L 350.453125 298.25 Z M 350.453125 301.574219 "/><path style=" stroke:none;fill-rule:nonzero;fill:#000000;fill-opacity:1;" d="M 360.902344 357.230469 C 360.902344 379.550781 360.234375 382.019531 354.0625 385.058594 C 351.117188 386.484375 350.453125 387.339844 350.453125 389.617188 C 350.453125 392.277344 350.546875 392.375 355.488281 392.375 C 359 392.375 362.039062 391.613281 365.460938 389.902344 C 373.816406 385.726562 376.097656 380.785156 376.191406 365.96875 L 376.285156 356.28125 L 371.539062 352.007812 C 368.878906 349.632812 365.460938 345.453125 363.84375 342.699219 L 360.902344 337.761719 Z M 360.902344 357.230469 "/><path style=" stroke:none;fill-rule:nonzero;fill:#000000;fill-opacity:1;" d="M 437.355469 343.175781 C 435.835938 345.835938 432.226562 350.015625 429.378906 352.578125 L 424.15625 357.230469 L 425.105469 367.964844 C 426.246094 381.070312 427.953125 384.964844 434.414062 389.050781 C 437.925781 391.136719 440.394531 391.898438 445.050781 392.183594 L 451.128906 392.5625 L 451.128906 389.617188 C 451.128906 387.148438 450.558594 386.484375 447.898438 385.34375 C 441.628906 382.78125 441.25 381.070312 440.679688 358.5625 L 440.207031 338.425781 Z M 437.355469 343.175781 "/><g style="fill:#000000;fill-opacity:1;"><g transform="translate(288.631834, 390.192752)"><path style="stroke:none" d="M 3.9375 0 L 3.9375 -88.9375 L 39.546875 -88.9375 L 39.546875 -71.640625 L 21.84375 -71.640625 L 21.84375 -57.453125 L 38.625 -57.453125 L 38.625 -40.375 L 21.84375 -40.375 L 21.84375 0 Z M 3.9375 0 "/></g></g><g style="fill:#000000;fill-opacity:1;"><g transform="translate(466.956916, 390.192752)"><path style="stroke:none" d="M 25.046875 0.828125 C 16.972656 0.828125 11.140625 -1.171875 7.546875 -5.171875 C 3.960938 -9.179688 2.171875 -15.632812 2.171875 -24.53125 L 2.171875 -33.234375 L 19.671875 -33.234375 L 19.671875 -22.15625 C 19.671875 -17.738281 21.085938 -15.53125 23.921875 -15.53125 C 25.503906 -15.53125 26.601562 -15.992188 27.21875 -16.921875 C 27.84375 -17.859375 28.15625 -19.429688 28.15625 -21.640625 C 28.15625 -24.535156 27.8125 -26.929688 27.125 -28.828125 C 26.4375 -30.734375 25.554688 -32.320312 24.484375 -33.59375 C 23.410156 -34.875 21.492188 -36.859375 18.734375 -39.546875 L 11.078125 -47.203125 C 5.140625 -53.003906 2.171875 -59.425781 2.171875 -66.46875 C 2.171875 -74.0625 3.910156 -79.84375 7.390625 -83.8125 C 10.878906 -87.78125 15.972656 -89.765625 22.671875 -89.765625 C 30.679688 -89.765625 36.445312 -87.640625 39.96875 -83.390625 C 43.488281 -79.148438 45.25 -72.507812 45.25 -63.46875 L 27.125 -63.46875 L 27.015625 -69.578125 C 27.015625 -70.742188 26.6875 -71.671875 26.03125 -72.359375 C 25.375 -73.054688 24.460938 -73.40625 23.296875 -73.40625 C 21.910156 -73.40625 20.875 -73.023438 20.1875 -72.265625 C 19.5 -71.503906 19.15625 -70.46875 19.15625 -69.15625 C 19.15625 -66.257812 20.8125 -63.257812 24.125 -60.15625 L 34.46875 -50.21875 C 36.882812 -47.863281 38.882812 -45.632812 40.46875 -43.53125 C 42.0625 -41.425781 43.34375 -38.941406 44.3125 -36.078125 C 45.28125 -33.210938 45.765625 -29.816406 45.765625 -25.890625 C 45.765625 -17.117188 44.15625 -10.472656 40.9375 -5.953125 C 37.726562 -1.429688 32.429688 0.828125 25.046875 0.828125 Z M 25.046875 0.828125 "/></g></g></g></svg>